<svg xmlns="http://www.w3.org/2000/svg" width="100%" height="100%" fill="currentColor" class="s-icon s-icon-icon-copy" viewBox="0 0 16 16">
  <path fill-rule="evenodd" d="M7.334 6.667a.667.667 0 0 0-.667.667v6a.667.667 0 0 0 .667.666h6a.667.667 0 0 0 .666-.666v-6a.667.667 0 0 0-.666-.667h-6Zm-2 .667a2 2 0 0 1 2-2h6a2 2 0 0 1 2 2v6a2 2 0 0 1-2 2h-6a2 2 0 0 1-2-2v-6ZM2.667 2A.667.667 0 0 0 2 2.667v6a.667.667 0 0 0 .667.667h.667a.667.667 0 0 1 0 1.333h-.667a2 2 0 0 1-2-2v-6a2 2 0 0 1 2-2h6a2 2 0 0 1 2 2v.667a.666.666 0 1 1-1.333 0v-.667A.667.667 0 0 0 8.667 2h-6Z"/>
</svg>