<svg xmlns="http://www.w3.org/2000/svg" width="100%" height="100%" fill="white" stroke="black" stroke-width=".25" class="s-icon s-icon-sport-swim" viewBox="0 0 16 16">
  <path fill-rule="evenodd" d="M11.606 6.252c-.2.666-.867 1.066-1.467.866-.666-.2-1-.866-.866-1.533.2-.667.866-1.067 1.466-.867.667.2 1.067.867.867 1.534Zm.067 3.8c.066 0 .866.6 1.866 0a.351.351 0 0 1 .467.133.351.351 0 0 1-.133.467c-.467.333-.934.4-1.334.4-.533 0-.933-.2-1.133-.267-.4.2-.8.267-1.133.267-.534 0-.934-.2-1.134-.267-.4.2-.8.267-1.133.267-.533 0-.933-.2-1.133-.267-.4.2-.8.267-1.134.267-.533 0-.933-.2-1.133-.267-.4.2-.8.267-1.133.267-.8 0-1.267-.4-1.334-.4-.133-.134-.2-.334-.066-.467.133-.133.333-.2.466-.067.067 0 .867.6 1.867 0 .067 0 .867.667 1.867 0 .066 0 .866.6 1.866 0 .067 0 .867.6 1.867 0h.067c1.533-.133 1.533-.133 1.6-.066-.067-.067-.067 0 0 0-.067 0-.067 0 0 0Zm-7.267-3.2h.133l2-.334.334.334-2.134 1.4c.067 0 .867.666 1.867 0 .067 0 .867.666 1.867 0 0 0 .533.4 1.2.266-.067-.133-.067-.2-.2-.266l-3.2-3.134h-.534l-1.466.267c-.4.067-.667.467-.6.867.066.333.4.6.733.6Zm-.867 2.866c-.8 0-1.266-.4-1.333-.4-.133-.133-.2-.333-.067-.466.134-.134.334-.2.467-.067.067 0 .867.6 1.867 0 .066 0 .866.667 1.866 0 .067 0 .867.6 1.867 0 .067 0 .867.6 1.867 0 .066 0 .866.6 1.866 0a.351.351 0 0 1 .467.133.351.351 0 0 1-.133.467c-.467.333-.934.4-1.334.4-.533 0-.933-.2-1.133-.267-.4.2-.8.267-1.133.267-.534 0-.934-.2-1.134-.267-.4.2-.8.267-1.133.267-.533 0-.933-.2-1.133-.267-.4.2-.8.267-1.134.267-.533 0-.933-.2-1.133-.267 1.267.134.867.2.533.2Z"/>
</svg>