<svg xmlns="http://www.w3.org/2000/svg" width="100%" height="100%" fill="white" stroke="black" stroke-width=".25" class="s-icon s-icon-sport-water-polo" viewBox="0 0 16 16">
  <path fill-rule="evenodd" d="M12.74 8.133c.733 0 1.333-.6 1.333-1.4 0-.8-.6-1.4-1.334-1.4-.733 0-1.333.6-1.333 1.4 0 .734.6 1.4 1.333 1.4ZM8.54 9.2c.6-.333.733-1.067.4-1.667a1.21 1.21 0 0 0-1.667-.466c-.6.333-.734 1.066-.4 1.666.333.6 1.066.8 1.666.467Zm5 5.6c-1 .667-1.867.067-1.867 0-1 .667-1.867.067-1.867 0-1 .667-1.867.067-1.867 0-1 .667-1.866.067-1.866 0-1 .667-1.867.067-1.867 0-.133-.133-.333-.067-.467.067-1.666.133-1.6.4-1.466.466 0 0 .533.4 1.333.4a2.54 2.54 0 0 0 1.133-.266c.2.133.6.266 1.134.266a2.54 2.54 0 0 0 1.133-.266c.2.133.6.266 1.133.266a2.54 2.54 0 0 0 1.134-.266c.2.133.6.266 1.133.266a2.54 2.54 0 0 0 1.133-.266c.2.133.6.266 1.134.266.4 0 .8-.133 1.333-.4.133-.066.2-.266.133-.466-.266-.134-.466-.134-.6-.067Zm-9.734-1.533c-.133 0-.267-.067-.4-.134-.333-.2-.4-.666-.2-1l1.4-1.933h.4l4.067-.067 1.2-1.666c.2-.334.666-.4 1-.2.333.2.4.666.2 1l-1.4 1.933-.067.067-.067.066s-.066 0-.066.067H8.539l-.6 2.133c-.466 0-.8-.266-.8-.266-.533.333-1 .333-1.333.266l.2-2.266h-.467l-1.2 1.666c-.133.2-.333.334-.533.334Zm7.867.333c.066 0 .866.6 1.866 0a.351.351 0 0 1 .467.133.351.351 0 0 1-.133.467c-.467.333-.934.4-1.334.4-.533 0-.933-.2-1.133-.267-.4.2-.8.267-1.133.267-.534 0-.934-.2-1.134-.267-.4.2-.8.267-1.133.267-.533 0-.933-.2-1.133-.267-.4.2-.8.267-1.134.267-.533 0-.933-.2-1.133-.267-.4.2-.8.267-1.133.267-.734 0-1.267-.4-1.334-.4-.133-.133-.2-.333-.066-.467.133-.133.333-.2.466-.066.067 0 .867.6 1.867 0 .067 0 .867.6 1.867 0 .066 0 .866.6 1.866 0 .067 0 .867.6 1.867 0 1.6-.134 1.6-.134 1.667-.067-.067-.067-.067-.067 0 0-.067-.067-.067-.067 0 0Z"/>
</svg>