<svg xmlns="http://www.w3.org/2000/svg" width="100%" height="100%" fill="white" stroke="black" stroke-width=".25" class="s-icon s-icon-sport-equestrian" viewBox="0 0 16 16">
  <path fill-rule="evenodd" d="M9.533 3.877c.067.4-.133.733-.533.8-.4.067-.733-.133-.8-.533-.067-.4.133-.734.533-.8.334-.067.734.2.8.533Zm.2 2.8-.6-.533-.333.933.333.267c.067 0 .134-.067.134-.067.266-.133.533-.333.8-.533-.134 0-.267 0-.334-.067Zm3.734-.333c.2.266.4.6.533.866.067.134 0 .267-.067.4-.133.134-.2.2-.4.134-.4-.134-1.2-.734-1.266-.8-.2.333-.334.8-.534 1.2-.2.533-.4 1.066-.666 1.466l1.733 1.267c.133.067.2.2.267.333 0 .134-.067.334-.2.4l-1.467 1.2c-.067.067-.133.067-.267.067a.367.367 0 0 1-.333-.2c-.133-.2-.067-.467.067-.6l.866-.733-1.666-.867h-.334c-1.266 0-2.533-.2-3.666-.8 0 .067-.067.133-.067.2-.067.133-.133.267-.133.4 0 0 0 .067-.067.067-.067.2-.133.333-.267.533 0 .067-.066.067-.066.133l1 1.4c.066.067.066.134.066.267a.367.367 0 0 1-.2.333c-.2.134-.466.067-.6-.066L4.667 11.61l-.067-.066c.2-.067.133-.134.133-.134-.133-.066-.066-.2-.066-.333v-.067s0-.066.066-.066c.267-.467 0-.8-.333-1.134l-.133-.133L4.2 9.61c-.133-.133-.267-.2-.333-.333-.2-.2-.267-.533-.267-.867 0-.333.133-.666.333-.933a.143.143 0 0 0-.133-.133h-.067c-.066 0-.133.066-.2.066h-.066c-.267.134-.6.267-.867.267-.2 0-.4 0-.6-.133.267-.067.467-.2.6-.334.067-.066.133-.066.2-.133.267.067.467-.067.6-.133.133-.067.267-.067.333-.067.067 0 .134.067.267.133.133.067.2.134.333.267.8-.4 2-.133 2.467 0 .067 0 .133.067.2.067.133 0 .2.066.333.066v-.533l.534-1.6c.133-.333.533-.533.866-.4.067 0 .134.067.2.133 0 0 .067 0 .067.067l1.067.8.666-.267c.2-.066.467 0 .534.267l.4-.2c.2-.067.333-.133.533-.2.133 0 .2-.067.333-.133.134-.134.2-.267.334-.334l-.067.467.333-.333c0 .066 0 .133-.066.2 0 .066-.067.2-.067.266 0 .067 0 .134.067.2.133.134.266.334.4.534Z"/>
</svg>