<svg xmlns="http://www.w3.org/2000/svg" width="100%" height="100%" fill="white" stroke="black" stroke-width=".25" class="s-icon s-icon-sport-triathalon" viewBox="0 0 16 16">
  <path fill-rule="evenodd" d="M9.14 5.146c.333.067.666-.133.733-.4.066-.333-.067-.666-.4-.733-.334-.067-.667.133-.734.4-.066.333.067.667.4.733Zm-2.734-.133c-.2 0-.4-.133-.4-.267 0-.2.067-.4.267-.4l1.133-.2 1.933 1.6c.067.067.067.067.067.134-.333.066-.533-.134-.6-.134-.467.334-.933 0-.933 0-.467.334-.934 0-.934 0l1.067-.733-.133-.133-1.467.133Zm-1.133 1.8s.266.2.666.2c.134 0 .334-.067.534-.133.133.066.333.133.533.133.133 0 .333-.067.533-.133.134.066.334.133.534.133.133 0 .333-.067.533-.133.133.066.333.133.533.133.134 0 .334-.067.534-.133.133.066.333.133.533.133s.4-.067.667-.2c.066-.067.066-.133.066-.2-.066-.067-.133-.067-.2-.067-.466.334-.933 0-.933 0-.467.334-.933 0-.933 0-.467.334-.934 0-.934 0-.466.334-.933 0-.933 0-.467.334-.933 0-.933 0-.667 0-.734 0-.8.067-.067.067-.067.2 0 .2Zm6.733 3.333.467.734c.066.066.133.133.266.066l.134-.066c.066-.067.133-.134.066-.267l-.466-.733h.2c.466 0 .866.4.866.866 0 .467-.4.867-.866.867a.81.81 0 0 1-.8-.8c-.067-.267 0-.467.133-.667Zm-1.733.4h-.4c-.067-.333-.2-.666-.467-.866l.267-.4h1.333l-.733 1.266Zm-1.334 0 .267-.4c.133.134.2.267.2.4h-.467Zm-.4 1a.882.882 0 0 1-.866-.866c0-.467.4-.867.866-.867h.2l-.466.8c-.134.2 0 .4.2.4h.866c-.133.333-.4.533-.8.533Zm1.734-3.4v.2c0 .067.066.2.2.2h.533l.133.267h-1.2v-.2c0-.067-.066-.2-.2-.2h-.933a.287.287 0 0 0-.267.267c0 .133.134.266.267.266h.533l-.333.534c-.133-.067-.267-.067-.467-.067-.733 0-1.333.6-1.333 1.333 0 .734.6 1.4 1.333 1.4.667 0 1.2-.466 1.334-1h.533c.067 0 .2-.066.2-.133l.933-1.467.134.267c-.267.267-.467.6-.467 1 0 .733.6 1.333 1.333 1.333.734 0 1.334-.6 1.4-1.333 0-.733-.6-1.4-1.333-1.4-.2 0-.333 0-.467.067l-.8-1.334c-.066-.066-.133-.133-.2-.133h-.666c-.134 0-.2.067-.2.133Zm-4.267.467a.598.598 0 0 1-.6-.6c0-.333.267-.6.6-.6.333 0 .6.267.6.6 0 .333-.267.6-.6.6Zm-3.933 3.533c.066.067.2.134.266.134.067 0 .134 0 .2-.067l1.734-1.4.4.133-.734.534c-.133.133-.2.333-.066.533a.5.5 0 0 0 .266.133c.067 0 .134 0 .2-.066l1.2-.934c.134-.066.134-.2.134-.333s-.067-.267-.2-.267l-.8-.333.333-.4.067.2c0 .133.133.2.2.267h.133c.067 0 .133 0 .2-.067l1-.533c.2-.067.267-.334.133-.534a.32.32 0 0 0-.4-.133l-.6.333-.133-.533c0-.133-.067-.2-.2-.2h-.133l-.934-.4c-.133-.067-.2-.067-.333 0l-1 .533c-.2.067-.267.334-.133.534.066.133.2.2.333.2.067 0 .133 0 .2-.067l.8-.467h.2l-.867.867c-.2.2-.2.467-.066.667l-1.334 1.133c-.133.133-.2.4-.066.533Zm3.866-5.733c-.4 0-.6-.2-.666-.2-.067-.067-.067-.133 0-.2.066-.067.133-.067.2 0 0 0 .4.333.933 0 0 0 .4.333.933 0 0 0 .4.333.934 0 0 0 .4.333.933 0 0 0 .4.333.933 0 .067-.067.2 0 .2.067.067.066 0 .2-.066.2-.267.133-.467.2-.667.2-.267 0-.467-.067-.533-.134-.2.134-.4.134-.534.134-.266 0-.466-.067-.533-.134-.2.134-.4.134-.533.134-.267 0-.467-.067-.534-.134-.2.134-.4.134-.533.134-.267 0-.467-.067-.533-.134.4.067.2.067.066.067Z"/>
</svg>