<svg xmlns="http://www.w3.org/2000/svg" width="100%" height="100%" fill="white" stroke="black" stroke-width=".25" class="s-icon s-icon-sport-tumbling-acrobatics" viewBox="0 0 16 16">
  <path fill-rule="evenodd" d="M8.512 13.103c0 .067 0 .2-.066.267h4.733v.6h-10v-.6h4.133c-.066-.134-.066-.2-.066-.334l.266-3.2-.133-.933-.666-1.8-3.734-2.4c-.333-.267-.4-.667-.2-1 .2-.333.667-.4.933-.2l3.334 2.2 2.866-3.467c.267-.266.667-.333 1-.066.267.266.334.666.067 1l-2.4 2.933.8 2 2.467-2.267c.267-.266.666-.2.867 0 .266.267.2.667 0 .867l-2.534 2.333-1.333.867h-.067l-.267 3.2Zm.867-1.733c-.333-.467-.266-1.134.2-1.467.467-.333 1.133-.267 1.467.2.333.467.267 1.133-.2 1.467-.467.333-1.133.266-1.467-.2Z"/>
</svg>