<svg xmlns="http://www.w3.org/2000/svg" width="100%" height="100%" fill="currentColor" class="s-icon s-icon-sport-mountain-biking" viewBox="0 0 16 16">
  <path fill-rule="evenodd" d="m9.603 2.133 4.266 5.2c.134.2.134.467-.066.6-.067.067-.2.067-.267.067a.51.51 0 0 1-.333-.133l-3.934-4.8L7.203 5.8c-.134.2-.4.2-.6.067-.2-.134-.2-.4-.067-.6l2.4-3.134C9.003 2 9.136 2 9.269 2c.134 0 .2 0 .334.133ZM6.203 4.4c.133.133.4.2.6 0a.42.42 0 0 0 0-.6L5.736 2.733a.51.51 0 0 0-.333-.133c-.067 0-.2.067-.267.2L2.069 7.067c-.133.133-.066.4.134.533.066.067.133.067.266.067a.367.367 0 0 0 .334-.2L5.536 3.6l.667.8Zm5.333 8.267a1.563 1.563 0 0 1-1.4-1.4c0-.4.133-.734.333-1l.867 1.333c.067.133.267.2.4.067l.267-.134c.133-.066.2-.266.066-.4l-.8-1.266c.134 0 .267-.067.334-.067.8 0 1.466.667 1.466 1.467s-.666 1.466-1.533 1.4Zm-3.933-1.734h-.667c-.067-.6-.333-1.066-.8-1.466l.467-.734h2.333l-1.333 2.2ZM5.336 11l.4-.667c.2.2.333.4.333.667h-.733Zm-.667 1.733a1.48 1.48 0 0 1-1.466-1.466c0-.8.666-1.467 1.466-1.467h.334l-.8 1.333c-.2.267 0 .667.4.667h1.466c-.266.533-.8.933-1.4.933Zm6.934-3.8c-.267 0-.6.067-.867.134L9.336 6.8c-.067-.133-.2-.2-.4-.2H7.803a.287.287 0 0 0-.267.267v.266c0 .134.133.267.267.267h.933l.267.4H6.936v-.267a.287.287 0 0 0-.267-.266h-1.6c-.266 0-.466.2-.466.466 0 .2.2.4.466.4h.867L5.403 9c-.2 0-.467-.067-.734-.067-1.266 0-2.333 1.067-2.333 2.334.067 1.266 1.067 2.333 2.333 2.333 1.067 0 2-.733 2.2-1.733h.934a.367.367 0 0 0 .333-.2l1.533-2.534.267.467c-.467.4-.733 1.067-.733 1.733 0 1.267 1.066 2.267 2.333 2.267 1.267 0 2.333-1 2.333-2.267a2.28 2.28 0 0 0-2.266-2.4Z"/>
</svg>