<svg xmlns="http://www.w3.org/2000/svg" width="100%" height="100%" fill="currentColor" class="s-icon s-icon-sport-all-sports" viewBox="0 0 16 16">
  <path fill-rule="evenodd" d="M9.267 2c.8 0 1.466.133 1.733.4.267.267.4.933.4 1.733L9.267 2Zm-2.4 3.267-.2.2V5.6l.4.4-.4.333v.2l.133.134c.067.066.133.066.133 0l.4-.4.4.4c.067.066.134.066.134 0L8 6.533c.067-.066.067-.133 0-.133L7.667 6 8 5.667l.4.4c.067.066.133.066.133 0l.134-.2c.066-.067.066-.134 0-.134l-.4-.4L8.6 5l.4.4c.067.067.133.067.133 0l.134-.133c.066-.067.066-.134 0-.134l-.4-.4.4-.4c.066-.066.066-.133 0-.133l-.134-.133C9.067 4 9 4 9 4.067l-.4.4-.4-.4c-.067-.067-.133-.067-.133 0l-.134.133c-.066.067-.066.133 0 .133l.4.4L8 5.067l-.4-.4c-.067-.067-.133-.067-.133 0l-.134.133c-.066.067-.066.133 0 .133l.334.4-.334.334-.4-.4h-.066Zm3.2 2.133c-.667.667-1.6 1.067-2.467 1.2L4.733 5.733c.134-.866.467-1.733 1.2-2.466C6.6 2.6 7.533 2.2 8.4 2.067l2.867 2.866c-.134.867-.534 1.8-1.2 2.467ZM6.733 8.733 4.667 6.6c0 .8.133 1.467.4 1.733.2.267.866.4 1.666.4Zm5.4-.066.867-1.2C12.467 7.133 11.867 7 11.267 7c.133.667.466 1.267.866 1.667Zm-1.666-.8s.066 0 0 0c.066 0 .066 0 0 0l.266-.267c.2.667.534 1.2 1.067 1.667l-.533.733-1.8-1.333c.333-.267.733-.467 1-.8Zm3.066 0c.467.4.8.933 1 1.533-.666.067-1.333 0-1.866-.333l.866-1.2Zm-2.666 2.6-.534.733c-.666-.4-1.533-.533-2.333-.4-.067-.533 0-1.133.267-1.667.2-.066.333-.066.533-.133l2.067 1.467Zm-2.734.933c.2.6.534 1.067 1 1.533l.867-1.2c-.533-.333-1.2-.4-1.867-.333Zm3.934 2.267c-.134-.867-.534-1.6-1.134-2.134l.534-.733 2.466 1.733c-.533.6-1.2 1-1.866 1.134Zm2.6-3.667c-.867.133-1.667 0-2.334-.4l-.533.733 2.467 1.734c.333-.667.466-1.4.4-2.067ZM11.4 13.733c-.6 0-1.2-.133-1.733-.466l.866-1.2c.4.4.734 1 .867 1.666ZM6.133 11.4c-.266-.733-.2-1.467 0-2.067l.4.134c-.2.533-.2 1.2 0 1.8l-.4.133Zm-2.866 0-.4-.133C3 10.667 3 10 2.8 9.467l.4-.134c.2.6.267 1.334.067 2.067Zm4.4-2.2c-1.4.267-2.734 0-3.134-.4-.266-.267-.466-.867-.466-1.667a3.4 3.4 0 0 0-1.734.934c.267.266.534.6.667.933l-.333.133a3.134 3.134 0 0 0-.6-.8 3.445 3.445 0 0 0-.734 2.134c0 .8.267 1.533.8 2.066.2-.266.4-.533.534-.866l.4.2c-.2.333-.4.666-.667.933.6.6 1.467.933 2.333.933.934 0 1.734-.4 2.334-1a5.033 5.033 0 0 1-.734-.933l.4-.2c.134.333.334.6.6.8.2-.2.334-.467.4-.733-.2-.4-.266-.867-.266-1.4 0-.334.066-.734.2-1.067Z"/>
</svg>