<svg xmlns="http://www.w3.org/2000/svg" width="100%" height="100%" fill="currentColor" class="s-icon s-icon-sport-rowing" viewBox="0 0 16 16">
  <path fill-rule="evenodd" d="M11.2 5.6c.4 0 .8-.333.8-.8a.77.77 0 0 0-.8-.8c-.467 0-.8.4-.8.8 0 .467.333.8.8.8Zm2.467 4.733s-.8.067-1.334-.333c-.266.2-.6.267-.8.333-.133 0-.2.134-.2.267s.134.2.2.2c.334-.067.667-.133.934-.333.466.266 1 .333 1.333.333h.2c.133 0 .2-.133.2-.267-.267-.133-.4-.266-.533-.2ZM6.533 7.8c.2 0 .4.133.467.333l.333-.333-1.866-.867-.2.867h1.266ZM12 7.8c.2 0 .4.133.467.4l.333-.333L10.933 7l-.2.867L12 7.8Zm1.8 1.733h-2.133l-1 1c.066.067.066.2 0 .334V11l-.4.733c-.067.134-.2.2-.334.267H9.8c-.267 0-.533-.067-.667-.267-.2-.266-.133-.666-.133-.666V11a.921.921 0 0 1 .2-.267l.733-.466c.134-.067.267-.067.4-.067l.734-.667H6.133l-1 1c.067.067.067.2 0 .334V11l-.466.733c-.067.134-.2.2-.334.267H4.2c-.267 0-.533-.067-.667-.267-.2-.266-.133-.666-.133-.666V11a.921.921 0 0 1 .2-.267l.733-.466c.134-.067.267-.067.4-.067l.734-.667H2.2c-.133 0-.2-.066-.2-.2 0-.133.067-.2.2-.2h3.733l.4-.333h-3l1-2.867v-.066c.134-.267.4-.334.667-.2l3.067 1.466c.266.134.333.4.2.667C8.2 8 8 8.067 7.8 8.067h-.133L6.467 9.2h4.866l.4-.333h-3l1.134-2.934v-.066c.133-.267.4-.334.666-.2L13.6 7.133c.267.134.333.4.2.667-.067.2-.267.267-.467.267H13.2L12 9.2h1.667c.133 0 .2.067.2.2.133.067.066.133-.067.133ZM5.667 5.6c.466 0 .8-.4.8-.8a.77.77 0 0 0-.8-.8c-.467 0-.8.4-.8.8 0 .467.4.8.8.8Zm-2 4.333c.066-.066.2-.066.333 0 .067.067.067.2 0 .334-.467.4-1.133.466-1.467.466h-.2c-.133 0-.2-.133-.2-.266 0-.134.134-.2.267-.2-.067.066.8.133 1.267-.334Zm2.066.8c.4-.066.734-.133 1-.333.334.2.734.333 1.067.333h.533c.334 0 .8-.133 1.134-.466.066-.067.133-.2 0-.334-.067-.066-.2-.133-.334 0-.333.267-.866.334-1.133.334s-.8-.067-1.133-.334h-.2c-.067 0-.134 0-.134.067-.266.2-.6.267-.8.333-.133 0-.2.134-.2.267 0 .067.067.133.2.133Zm1.134.134c.466.4 1.333.333 1.333.333.133 0 .2.067.267.2 0 .133-.067.2-.2.267h-.2c-.267 0-.867-.067-1.334-.334-.266.2-.533.267-.933.334-.133 0-.2-.067-.2-.2 0-.134.067-.2.2-.267.267 0 .6-.133.8-.333.067-.067.133-.067.133-.067s.067.067.134.067Z"/>
</svg>