<svg xmlns="http://www.w3.org/2000/svg" width="100%" height="100%" fill="currentColor" class="s-icon s-icon-sport-sync-skate" viewBox="0 0 16 16">
  <path fill-rule="evenodd" d="M8.067 5.467a.74.74 0 0 0 .733-.734A.74.74 0 0 0 8.067 4a.74.74 0 0 0-.734.733c0 .4.334.734.734.734ZM2.533 8.533c.067.067.134.067.2.067.067 0 .134 0 .2.067.067.066.067.133.067.2 0 .066 0 .133-.067.2-.066.066-.133.066-.2.066-.2 0-.4-.066-.533-.2-.133-.2-.2-.4-.2-.6V6.867c0-.134.133-.2.267-.2.133 0 .266.133.266.266V8.4c-.066 0 0 .067 0 .133Zm4.734 2.734c0-.134.133-.267.266-.267.067 0 .134 0 .2.067.067.066.067.133.067.2 0 .2-.067.4-.2.533s-.4.2-.6.2H5.533a.287.287 0 0 1-.266-.267c0-.133.133-.266.266-.266H7c.133 0 .267-.067.267-.2Zm-2-4c0 .133-.067.2-.067.333l.067.667H3.2c-.2 0-.333-.067-.4-.267a.57.57 0 0 1 0-.467c.067-.133.267-.266.4-.266h2.067ZM5 6.6h1.067l-.334.267c-.2.2-.333.4-.333.733 0 .267.4 1.933.4 1.933V10.8c0 .2.067.333.267.4a.57.57 0 0 0 .466 0c.134-.067.267-.267.267-.4l-.067-3.067 1.4-1.066h1.734c.266 0 .466-.2.466-.467s-.2-.467-.466-.467H4.933a.51.51 0 0 0-.333.134c-.067 0-.133.133-.133.266 0 .267.2.467.533.467Zm7.467 0c-.267 0-.467.2-.467.467 0 .266.2.466.467.466.266 0 .466-.2.466-.466 0-.267-.2-.467-.466-.467Zm-.534 4.867c0-.067.067-.134.134-.134.066 0 .066 0 .133.067 0 0 .067.067.067.133 0 .267-.2.467-.467.467h-1a.143.143 0 0 1-.133-.133c0-.067.066-.134.133-.134h1c.067-.066.133-.133.133-.266ZM8.867 9.733c-.067 0-.067 0-.134-.066-.066-.067-.066-.067-.066-.134v-1a.143.143 0 0 0-.134-.133.143.143 0 0 0-.133.133v1a.51.51 0 0 0 .133.334.51.51 0 0 0 .334.133c.066 0 .066 0 .133-.067 0 0 .067-.066.067-.133s0-.067-.067-.133c-.067.066-.067.066-.133.066ZM10.6 8.8V9l.067.4h-1.4c-.134 0-.2-.067-.267-.133-.067-.134-.067-.2 0-.334.067-.133.2-.133.267-.133H10.6Zm3.067-1.133h-3.334c-.066 0-.2.066-.266.066C10 7.8 10 7.867 10 8c0 .2.133.333.333.333h.734l-.2.2a.605.605 0 0 0-.2.467c0 .2.266 1.267.266 1.267v.866c0 .2.134.334.334.334s.333-.134.333-.334V9.067l.933-.734h1.134c.2 0 .333-.133.333-.333 0-.133-.133-.333-.333-.333Z"/>
</svg>