<svg xmlns="http://www.w3.org/2000/svg" width="100%" height="100%" fill="white" stroke="black" stroke-width=".25" class="s-icon s-icon-social-cameo" viewBox="0 0 16 16">
  <path d="M5.164 12.901a.694.694 0 0 1-.115-.059c-.075-.047-1.115-1.08-1.185-1.175a.4.4 0 0 1-.093-.342.467.467 0 0 1 .159-.238c.345-.267.71-.509 1.09-.724.446-.339.93-.626 1.44-.856a.437.437 0 0 1 .267.017c.16.121.302.264.423.423.032.08.04.166.022.25-.216.505-.496.98-.834 1.413-.213.334-.432.674-.485.761-.212.34-.31.457-.425.514a.362.362 0 0 1-.264.016Zm5.484-6.396a.866.866 0 0 1-.3-.243 1.019 1.019 0 0 1-.158-.19.4.4 0 0 1-.029-.239c.037-.169.109-.292.813-1.39.238-.369.486-.757.552-.863.066-.106.15-.229.186-.274a.401.401 0 0 1 .652-.076c.044.034.304.29.578.565.51.513.568.579.614.7a.348.348 0 0 1-.01.26c-.062.127-.176.225-.496.428l-.774.495c-.874.562-1.134.724-1.267.785a.493.493 0 0 1-.358.042h-.003ZM7.893 14a.382.382 0 0 1-.373-.341 2.2 2.2 0 0 1 .1-.68l.173-.792c.301-1.394.341-1.533.485-1.663.089-.08.128-.088.41-.088.098-.005.196 0 .293.014a.4.4 0 0 1 .195.154 6.25 6.25 0 0 1 .436 1.683 109.274 109.274 0 0 0 .24 1.095c.021.115.023.232.007.348a.341.341 0 0 1-.197.226c-.113.052-.16.055-.962.054-.41 0-.773-.005-.807-.01Zm-1.39-7.482c-.168-.032-.309-.114-1.405-.82a99.77 99.77 0 0 0-.77-.492c-.373-.234-.478-.32-.54-.446a.38.38 0 0 1 .05-.39 28.391 28.391 0 0 1 1.15-1.156.38.38 0 0 1 .507-.036c.13.114.238.25.321.4l.499.78c.333.44.618.917.849 1.42a.405.405 0 0 1-.013.288c-.125.16-.27.304-.433.426a.47.47 0 0 1-.215.026Zm5.414 6.359c-.134-.067-.218-.167-.434-.508-.076-.121-.308-.483-.514-.804-.4-.623-.578-.904-.675-1.073-.147-.255-.176-.417-.1-.559.118-.156.257-.295.414-.412a.425.425 0 0 1 .29-.01c.496.23.965.51 1.4.839l.78.498c.101.063.219.14.263.173.266.2.312.4.145.631a28.22 28.22 0 0 1-1.177 1.174.38.38 0 0 1-.39.051h-.002Zm-8.97-3.703c-.158-.043-.243-.161-.272-.379-.008-.055-.008-.341-.008-.838.004-.835 0-.808.074-.942a.333.333 0 0 1 .274-.176c.15-.01.301.006.446.047l.912.2a40.4 40.4 0 0 1 1.392.316c.262.075.387.155.448.287.02.045.022.067.022.32v.273l-.029.06a.56.56 0 0 1-.365.253c-.168.052-.482.124-1.446.334-.298.066-.661.144-.808.178a6.792 6.792 0 0 1-.343.072.927.927 0 0 1-.297-.005ZM8.39 5.567c-.149-.054-.229-.158-.301-.388-.042-.133-.146-.586-.311-1.35a86.709 86.709 0 0 0-.2-.906 1.919 1.919 0 0 1-.082-.554.361.361 0 0 1 .298-.34 5.1 5.1 0 0 1 .865-.018c.867 0 .863 0 .987.058.082.04.145.107.179.19a.588.588 0 0 1 .018.2c.002.107-.01.213-.039.316l-.2.912a8.333 8.333 0 0 1-.414 1.667.451.451 0 0 1-.185.195c-.051.026-.06.026-.315.029a1.29 1.29 0 0 1-.3-.012Z"/>
</svg>