<svg xmlns="http://www.w3.org/2000/svg" width="100%" height="100%" fill="white" stroke="black" stroke-width=".25" class="s-icon s-icon-social-ear-it" viewBox="0 0 16 16">
  <path d="M12.863 9.422c-.282 0-.781.022-1.078.036-.13 0-.224.007-.253.007-.022 0-.094 0-.203-.007a31.544 31.544 0 0 0-1.324-.036c-.08 0-.29 0-.29.18 0 .153.13.153.181.153.145.007.297.014.442.043.492.13.564.225.564 1.317l.015 1.484c0 .528-.26.919-.731 1.092-.586.218-1.375.058-1.722-.34a21.1 21.1 0 0 1-1.448-2.431c-.231-.37-.499-.71-.752-1.042-.326-.42-.63-.825-.84-1.223a6.265 6.265 0 0 1-.304-5.058 3.76 3.76 0 0 1 3.973-1.918c1.665.318 2.902 1.454 3.67 3.38v.028c.05.116.108.268.252.232.123-.03.116-.13.109-.232v-.144C12.9 2.873 11.727.499 9.079.08a5.044 5.044 0 0 0-5.102 2.2 6.335 6.335 0 0 0-.673 5.311c.297 1.15.905 1.86 1.498 2.54.47.543.919 1.057 1.201 1.773.058.16.123.311.174.456.637 1.664 1.027 2.663 2.33 3.343a2.817 2.817 0 0 0 2.757-.137 2.685 2.685 0 0 0 .934-2.113v-2.099c0-.304-.008-.572 0-.868.021-.478.13-.644.441-.702a2.51 2.51 0 0 1 .326-.044h.021s.08.008.116-.029a.172.172 0 0 0 .044-.123c0-.18-.145-.18-.29-.18l.007.014Z"/>
  <path d="M9.81 5.71c.18-.065.231-.167.217-.246-.015-.073-.08-.145-.246-.145a2.773 2.773 0 0 0-2.656 2.229c-.282 1.331.173 2.525.709 3.075.224.232.47.355.702.355.036 0 .08 0 .116-.007.253-.044.448-.203.571-.442.246-.5.13-1.266-.057-1.62-.138-.276-.333-.435-.529-.435h-.014a.34.34 0 0 0-.26.13 2.91 2.91 0 0 1 .043-1.65A2.23 2.23 0 0 1 9.81 5.717V5.71Z"/>
  <path d="M10.02 7.555a3.192 3.192 0 0 0 .738-4.212c-.492-.702-1.397-1.085-2.403-1.027-1.085.065-2.033.63-2.482 1.461-.71 1.325-.594 3.01.347 5.008a.213.213 0 0 0 .181.123c.022 0 .036 0 .058-.007.072-.029.13-.109.094-.26-.456-2.143-.456-3.358-.007-4.183 0-.015.014-.022.022-.036a2.271 2.271 0 0 1 3.147-.666c.377.275.63.73.71 1.273.108.767-.13 1.6-.659 2.287-.065.094-.065.203 0 .26.05.044.152.066.26-.028l-.007.007Z"/>
</svg>