<svg xmlns="http://www.w3.org/2000/svg" width="100%" height="100%" fill="currentColor" class="s-icon s-icon-icon-video" viewBox="0 0 16 16">
  <path d="M15.333 12a.658.658 0 0 1-.387-.124l-4.667-3.334a.667.667 0 0 1 0-1.085l4.667-3.333A.667.667 0 0 1 16 4.667v6.667a.666.666 0 0 1-.667.666Zm-3.519-4 2.853 2.038V5.962L11.814 8Zm-2.48 5.334H2a2 2 0 0 1-2-2V4.667a2 2 0 0 1 2-2h7.333a2 2 0 0 1 2 2v6.667a2 2 0 0 1-2 2ZM2 4a.667.667 0 0 0-.667.667v6.667A.667.667 0 0 0 2 12h7.333a.667.667 0 0 0 .667-.666V4.667A.667.667 0 0 0 9.333 4H2Z"/>
</svg>