<svg xmlns="http://www.w3.org/2000/svg" width="100%" height="100%" fill="currentColor" class="s-icon s-icon-icon-headphones" viewBox="0 0 16 16">
  <path d="M12.666 14.666H12a2 2 0 0 1-2-2v-2a2 2 0 0 1 2-2h1.333V8A5.333 5.333 0 1 0 2.666 8v.666H4a2 2 0 0 1 2 2v2a2 2 0 0 1-2 2h-.667a2 2 0 0 1-2-2V8a6.667 6.667 0 0 1 13.333 0v4.666a2 2 0 0 1-2 2ZM12 10a.667.667 0 0 0-.667.666v2a.666.666 0 0 0 .667.667h.666a.666.666 0 0 0 .667-.667V10H12Zm-9.334 2v.666a.666.666 0 0 0 .667.667H4a.666.666 0 0 0 .666-.667v-2A.667.667 0 0 0 4 10H2.666v2Z"/>
</svg>