<svg xmlns="http://www.w3.org/2000/svg" width="100%" height="100%" fill="currentColor" class="s-icon s-icon-icon-splitbox" viewBox="0 0 16 16">
  <path d="M4.47 7.345a.578.578 0 0 1-.41.16.331.331 0 0 1-.247-.106.374.374 0 0 1-.071-.112.343.343 0 0 1-.003-.254.271.271 0 0 1 .062-.088.494.494 0 0 1 .093-.068l.112-.062c.084-.056.159-.111.224-.168.066-.056.125-.11.176-.158a7.08 7.08 0 0 1 .135-.126.443.443 0 0 1 .19-.107.365.365 0 0 1 .05-.005l.07-.001a.35.35 0 0 1 .206.053c.05.035.09.08.115.136a.569.569 0 0 1 .05.188c.006.07.01.14.01.213v2.32c0 .073-.004.145-.01.216a.56.56 0 0 1-.05.189.33.33 0 0 1-.115.134.361.361 0 0 1-.206.05.365.365 0 0 1-.207-.05.327.327 0 0 1-.114-.134.565.565 0 0 1-.049-.19 2.298 2.298 0 0 1-.01-.215V7.345Zm.38 2.488a.436.436 0 0 1-.254-.066.406.406 0 0 1-.142-.167.655.655 0 0 1-.056-.217 2.236 2.236 0 0 1-.01-.224V7.507a.57.57 0 0 1-.5.045.407.407 0 0 1-.136-.098.428.428 0 0 1-.09-.455.347.347 0 0 1 .082-.116.614.614 0 0 1 .108-.08l.114-.062c.076-.05.148-.104.21-.157.064-.056.122-.108.172-.156l.137-.128a.489.489 0 0 1 .233-.127.581.581 0 0 1 .059-.006l.074-.001a.404.404 0 0 1 .397.238c.03.068.049.14.055.215a2 2 0 0 1 .011.22v2.32c0 .077-.003.152-.01.226a.648.648 0 0 1-.056.215.41.41 0 0 1-.145.168.445.445 0 0 1-.252.065Zm-.296-2.678V9.16c0 .07.003.14.01.208a.477.477 0 0 0 .041.162c.019.04.048.076.085.1.072.049.248.05.321 0a.237.237 0 0 0 .086-.1.498.498 0 0 0 .041-.161c.007-.069.01-.139.01-.209V6.84c0-.068-.003-.137-.01-.204a.507.507 0 0 0-.04-.162.245.245 0 0 0-.087-.102.283.283 0 0 0-.16-.038c-.048 0-.08 0-.104.005a.344.344 0 0 0-.149.085 5.667 5.667 0 0 0-.134.126 3.425 3.425 0 0 1-.18.16 2.225 2.225 0 0 1-.232.175l-.117.065a.432.432 0 0 0-.077.056.184.184 0 0 0-.043.062.26.26 0 0 0 .004.188.253.253 0 0 0 .137.144c.097.044.22.022.302-.014a.576.576 0 0 0 .157-.102l.14-.128h-.001Zm6.84-.912c.188 0 .353.025.495.076a.892.892 0 0 1 .571.537c.048.125.072.265.072.416a.9.9 0 0 1-.04.277 1.035 1.035 0 0 1-.26.423 1.535 1.535 0 0 1-.172.15c-.145.106-.304.19-.473.25a1.48 1.48 0 0 0-.174.084.783.783 0 0 0-.154.113.53.53 0 0 0-.11.147.412.412 0 0 0-.042.191v.155h.87c.07 0 .14.003.21.01.07.007.133.021.19.045a.32.32 0 0 1 .137.104.302.302 0 0 1 .053.186.31.31 0 0 1-.053.19.338.338 0 0 1-.137.107.62.62 0 0 1-.19.047c-.07.007-.14.01-.21.01H10.73a.455.455 0 0 1-.206-.041.361.361 0 0 1-.194-.247.706.706 0 0 1-.02-.156v-.4a1.013 1.013 0 0 1 .245-.67A1.35 1.35 0 0 1 10.833 8c.107-.073.227-.136.359-.187.131-.051.236-.101.315-.149a.846.846 0 0 0 .18-.14.347.347 0 0 0 .085-.138.513.513 0 0 0-.024-.348.298.298 0 0 0-.107-.111.348.348 0 0 0-.133-.045 1.058 1.058 0 0 0-.116-.008.467.467 0 0 0-.2.036.29.29 0 0 0-.114.09.29.29 0 0 0-.05.122.772.772 0 0 0-.011.126.342.342 0 0 1-.131.277.422.422 0 0 1-.244.083.396.396 0 0 1-.275-.094.309.309 0 0 1-.106-.241 1.084 1.084 0 0 1 .192-.615.84.84 0 0 1 .203-.207c.083-.061.185-.111.304-.15.12-.039.264-.057.43-.057h.003Zm.585 3.602h-1.246a.524.524 0 0 1-.243-.051.447.447 0 0 1-.239-.303.761.761 0 0 1-.02-.174v-.4a1.1 1.1 0 0 1 .264-.722 1.42 1.42 0 0 1 .294-.264 1.93 1.93 0 0 1 .374-.196c.127-.05.23-.098.302-.142a.744.744 0 0 0 .164-.125.264.264 0 0 0 .065-.105.44.44 0 0 0-.016-.282.211.211 0 0 0-.077-.082.283.283 0 0 0-.101-.034c-.144-.018-.215-.007-.27.02a.207.207 0 0 0-.082.064.22.22 0 0 0-.035.086.636.636 0 0 0-.011.113.427.427 0 0 1-.047.205.441.441 0 0 1-.266.215.47.47 0 0 1-.476-.091.388.388 0 0 1-.133-.304c.001-.236.073-.466.207-.661a.946.946 0 0 1 .221-.228c.1-.072.212-.127.33-.163.127-.04.28-.061.455-.061.197 0 .374.027.524.081a.98.98 0 0 1 .622.586c.051.136.077.286.077.446 0 .108-.014.21-.044.303a1.134 1.134 0 0 1-.28.456c-.057.057-.117.11-.18.157a1.96 1.96 0 0 1-.495.262 1.14 1.14 0 0 0-.161.078.696.696 0 0 0-.137.1.455.455 0 0 0-.094.125.333.333 0 0 0-.034.154v.071h.787c.072 0 .146.004.218.01.079.008.15.025.214.052a.397.397 0 0 1 .172.13c.046.06.07.14.07.236a.39.39 0 0 1-.07.24.416.416 0 0 1-.17.134.704.704 0 0 1-.216.054 1.97 1.97 0 0 1-.217.01Zm-.586-3.056c.035 0 .077.003.127.01a.44.44 0 0 1 .162.055.364.364 0 0 1 .14.142c.04.076.058.16.055.246a.629.629 0 0 1-.024.165.434.434 0 0 1-.103.174.903.903 0 0 1-.198.154c-.105.06-.215.112-.328.154a1.75 1.75 0 0 0-.343.18c-.1.068-.188.146-.26.233a.923.923 0 0 0-.225.615v.4c0 .044.006.09.016.136a.28.28 0 0 0 .151.192c.053.024.11.036.169.033h1.245c.067 0 .135-.003.202-.01a.524.524 0 0 0 .165-.04.251.251 0 0 0 .103-.081.232.232 0 0 0 .037-.14.216.216 0 0 0-.036-.136.243.243 0 0 0-.102-.077.587.587 0 0 0-.167-.04 2.276 2.276 0 0 0-.202-.009h-.954v-.238c0-.084.018-.162.052-.23a.626.626 0 0 1 .127-.168.869.869 0 0 1 .17-.125 1.81 1.81 0 0 1 .183-.089c.169-.06.32-.14.455-.24.055-.04.11-.088.162-.14a.905.905 0 0 0 .239-.39.821.821 0 0 0 .037-.252c0-.14-.022-.27-.068-.386a.786.786 0 0 0-.194-.294.91.91 0 0 0-.327-.194 1.4 1.4 0 0 0-.468-.072c-.158 0-.293.018-.404.054a.955.955 0 0 0-.281.138.77.77 0 0 0-.183.187 1.008 1.008 0 0 0-.177.567c0 .076.024.133.076.18.072.064.17.1.317.056a.32.32 0 0 0 .097-.05.263.263 0 0 0 .071-.084.269.269 0 0 0 .027-.126.81.81 0 0 1 .013-.14.362.362 0 0 1 .21-.273.542.542 0 0 1 .236-.045V6.79Zm3.94 5.21V4.006a2.002 2.002 0 0 0-2-2H9.932a.667.667 0 0 0 0 1.334h3.401a.666.666 0 0 1 .667.666V12a.666.666 0 0 1-.667.666H9.932a.667.667 0 1 0 0 1.333h3.401c1.103 0 2-.897 2-2ZM7.63.297a.667.667 0 0 0-.666.667V2H2.666c-1.102 0-2 .897-2 2v8c0 1.103.898 2 2 2h4.298v1.038a.667.667 0 1 0 1.333 0V.963A.667.667 0 0 0 7.63.296Zm-4.963 12.37A.668.668 0 0 1 2 12V4c0-.367.3-.667.667-.667h4.297v9.334H2.666Z"/>
</svg>