<svg xmlns="http://www.w3.org/2000/svg" width="100%" height="100%" fill="currentColor" class="s-icon s-icon-sport-polo" viewBox="0 0 16 16">
  <path fill-rule="evenodd" d="m8.733 7.958.334.267c.066 0 .133-.067.133-.067.267-.133.533-.333.8-.533-.133 0-.2 0-.333-.067l-.6-.533-.334.933Zm5.134.534c-.134.133-.2.2-.4.133-.4-.133-1.267-.733-1.267-.8-.467.8-.667 1.933-1.2 2.733l1.733 1.267c.134.067.267.2.267.333 0 .134-.067.334-.2.4l-1.467 1.134c-.066.066-.133.066-.266.066a.367.367 0 0 1-.334-.2c-.133-.2-.066-.466.067-.6l.867-.733L10 11.358h-.333c-1.267 0-2.534-.2-3.667-.8-.067.2-.133.4-.267.6-.066.2-.133.4-.266.6 0 .067-.067.067-.067.134l1.067 1.4c.066.066.066.133.066.266a.367.367 0 0 1-.2.334c-.066.133-.333.066-.466-.134L4.8 12.425l-.133-.133c-.134-.067-.134-.2-.067-.334.067 0 .067 0 .067-.066.266-.467 0-.8-.334-1.134l-.2-.2c-.133-.133-.266-.2-.333-.333-.2-.2-.267-.533-.267-.867 0-.333.134-.666.4-.933a.143.143 0 0 0-.133-.133c-.133.066-.2.066-.267.066-.333.2-.6.334-.933.334-.2 0-.4 0-.6-.134.333-.066.6-.333.867-.533.133 0 .333-.133.466-.2.134-.067.267-.067.334-.067.066 0 .133.067.266.134.134.066.2.133.334.266.933-.533 2.4 0 2.666 0 .134 0 .2.067.334.067v-.533l.6-1.6c.133-.334.533-.534.866-.4.067 0 .134.066.2.133 0 0 .067 0 .067.067l1 .866.467-.2L12 2.825l-.6-.2a.32.32 0 0 1-.133-.4c0-.2.2-.267.333-.2l1.733.667a.32.32 0 0 1 .134.4c-.067.133-.134.2-.267.2h-.133l-.534-.2-1.4 3.533c.067.067.067.067.067.133.133-.066.267-.133.4-.266.2-.067.333-.134.533-.2a.51.51 0 0 0 .334-.134c.066-.133.2-.2.333-.333 0 .133-.067.333-.067.467.134-.134.2-.267.334-.334 0 .134-.067.334-.067.467 0 .067 0 .133.067.2.333.467.6 1 .933 1.467.067.2 0 .333-.133.4Zm-5.8-3.6c0-.4.333-.667.733-.667.4 0 .667.333.667.733 0 .4-.334.667-.734.667-.333 0-.666-.333-.666-.733Z"/>
</svg>