<svg xmlns="http://www.w3.org/2000/svg" width="100%" height="100%" fill="currentColor" class="s-icon s-icon-icon-fast-forward" viewBox="0 0 16 16">
  <path fill-rule="evenodd" d="M8.373 2.724a.667.667 0 0 1 .667.074l6 4.666a.667.667 0 0 1 0 1.054l-6 4.666a.667.667 0 0 1-.667.074.667.667 0 0 1-.373-.6V3.324a.667.667 0 0 1 .373-.6Zm.96 1.934v6.666l4.247-3.333-4.247-3.333ZM1.04 2.724a.667.667 0 0 1 .667.074l6 4.666a.667.667 0 0 1 0 1.054l-6 4.666a.667.667 0 0 1-.667.074.667.667 0 0 1-.373-.6V3.324a.667.667 0 0 1 .373-.6ZM2 4.658v6.666l4.247-3.333L2 4.658Z"/>
</svg>