<svg xmlns="http://www.w3.org/2000/svg" width="100%" height="100%" fill="white" stroke="black" stroke-width=".25" class="s-icon s-icon-icon-menu-left" viewBox="0 0 16 16">
  <path fill-rule="evenodd" d="M1.333 4c0-.367.3-.667.667-.667h12c.366 0 .666.3.666.667 0 .366-.3.666-.666.666H2A.669.669 0 0 1 1.333 4Zm0 4c0-.367.3-.667.667-.667h8.226c.367 0 .667.3.667.667 0 .366-.3.666-.667.666H2A.669.669 0 0 1 1.333 8Zm0 4c0-.367.3-.667.667-.667h4.46c.366 0 .666.3.666.667 0 .366-.3.666-.666.666H2A.669.669 0 0 1 1.333 12Z"/>
</svg>