<svg xmlns="http://www.w3.org/2000/svg" width="100%" height="100%" fill="white" stroke="black" stroke-width=".25" class="s-icon s-icon-icon-standings" viewBox="0 0 16 16">
  <path d="M15 15.35H1a.667.667 0 0 1-.667-.668v-5.4A.667.667 0 0 1 1 8.616h4v-2a.667.667 0 0 1 .666-.667h4.667a.667.667 0 0 1 .667.667v3.333h4a.667.667 0 0 1 .666.667v4.066a.667.667 0 0 1-.666.667Zm-4-1.334h3.333v-2.734H11v2.734Zm-4.667 0h3.333V7.282H6.333v6.734Zm-4.667 0H5V9.949H1.666v4.067ZM7.697 2.41a.566.566 0 0 1-.41.16.33.33 0 0 1-.139-.029.317.317 0 0 1-.108-.076.383.383 0 0 1-.072-.11.337.337 0 0 1-.003-.255.267.267 0 0 1 .062-.09.512.512 0 0 1 .093-.066l.112-.063c.078-.05.153-.106.224-.167.066-.057.124-.11.176-.159l.134-.126a.446.446 0 0 1 .1-.072l.046-.022a.249.249 0 0 1 .044-.012c.015 0 .032-.004.05-.005h.07a.363.363 0 0 1 .206.053c.05.033.09.08.115.133a.58.58 0 0 1 .049.189c.006.066.01.14.01.212v2.32c0 .074-.004.146-.01.216a.56.56 0 0 1-.049.19.318.318 0 0 1-.115.132.443.443 0 0 1-.414 0 .333.333 0 0 1-.114-.133.575.575 0 0 1-.048-.189 2.301 2.301 0 0 1-.01-.216l.001-1.815Zm-4.62 1.733c.169-.002.337.023.497.076.132.046.253.118.356.213a.877.877 0 0 1 .214.325c.05.133.075.274.073.416a.867.867 0 0 1-.041.278 1.023 1.023 0 0 1-.259.422 1.473 1.473 0 0 1-.173.15c-.144.106-.303.19-.472.25-.06.024-.118.052-.174.084a.82.82 0 0 0-.154.112.545.545 0 0 0-.11.148.42.42 0 0 0-.042.191v.155h.867c.07 0 .14.004.21.01a.65.65 0 0 1 .19.045.327.327 0 0 1 .137.104c.038.055.056.12.053.186a.315.315 0 0 1-.053.19.333.333 0 0 1-.137.108.608.608 0 0 1-.19.047c-.07.007-.14.01-.21.01H2.417a.45.45 0 0 1-.206-.04.35.35 0 0 1-.129-.106.374.374 0 0 1-.066-.142A.687.687 0 0 1 2 7.218v-.4c0-.123.022-.245.066-.36.043-.112.103-.216.18-.308.081-.095.174-.179.278-.249.112-.076.232-.138.358-.187.11-.041.216-.09.318-.149a.84.84 0 0 0 .181-.14.351.351 0 0 0 .083-.139.512.512 0 0 0 .02-.142.415.415 0 0 0-.043-.206.292.292 0 0 0-.108-.11.348.348 0 0 0-.133-.046.969.969 0 0 0-.117-.008.467.467 0 0 0-.2.036.28.28 0 0 0-.163.212.733.733 0 0 0-.012.126.345.345 0 0 1-.256.34.417.417 0 0 1-.122.02.4.4 0 0 1-.274-.093.311.311 0 0 1-.106-.242 1.28 1.28 0 0 1 .016-.167 1.084 1.084 0 0 1 .177-.448.856.856 0 0 1 .2-.208c.093-.066.195-.116.304-.15.14-.04.285-.06.43-.056Zm9.928 2.067v-.033h-.65a1.75 1.75 0 0 1-.177-.01.516.516 0 0 1-.166-.045.307.307 0 0 1-.124-.105.322.322 0 0 1-.048-.19.291.291 0 0 1 .172-.29.534.534 0 0 1 .166-.045 1.5 1.5 0 0 1 .177-.01h1.111c.062 0 .122.01.179.033a.363.363 0 0 1 .215.21.384.384 0 0 1 .027.142.572.572 0 0 1-.006.082.224.224 0 0 1-.029.078l-.452.75c.079.034.154.076.224.126a.856.856 0 0 1 .196.2.984.984 0 0 1 .138.284 1.607 1.607 0 0 1 0 .802c-.03.115-.076.224-.138.324a.922.922 0 0 1-.2.232 1.083 1.083 0 0 1-.248.151 1.199 1.199 0 0 1-.27.082 1.354 1.354 0 0 1-.951-.16.875.875 0 0 1-.19-.147.653.653 0 0 1-.133-.19.533.533 0 0 1-.048-.233c0-.04.007-.078.02-.116a.29.29 0 0 1 .053-.1.294.294 0 0 1 .225-.093c.068 0 .134.02.191.058a.436.436 0 0 1 .149.177.345.345 0 0 0 .129.13.562.562 0 0 0 .29.071.533.533 0 0 0 .24-.046.393.393 0 0 0 .148-.12.457.457 0 0 0 .077-.17.891.891 0 0 0 .02-.194.565.565 0 0 0-.037-.207.52.52 0 0 0-.246-.273.39.39 0 0 0-.167-.04.267.267 0 0 1-.194-.072.265.265 0 0 1-.075-.2c0-.04.007-.078.02-.116a.78.78 0 0 1 .067-.144l.315-.583Zm-.176 2.875a1.425 1.425 0 0 1-.482-.088 1.395 1.395 0 0 1-.235-.109.929.929 0 0 1-.208-.162.74.74 0 0 1-.148-.212.627.627 0 0 1-.057-.267c0-.048.007-.096.021-.142a.376.376 0 0 1 .067-.128.356.356 0 0 1 .291-.127.43.43 0 0 1 .235.071c.078.054.14.127.179.213a.286.286 0 0 0 .094.091.488.488 0 0 0 .238.061h.027c.065 0 .13-.013.189-.04a.313.313 0 0 0 .116-.095.376.376 0 0 0 .062-.138.814.814 0 0 0 .018-.174.474.474 0 0 0-.116-.316.356.356 0 0 0-.263-.12.351.351 0 0 1-.244-.098.349.349 0 0 1-.099-.263.487.487 0 0 1 .024-.137.872.872 0 0 1 .075-.16l.267-.486h-.529c-.062 0-.124-.003-.186-.01a.594.594 0 0 1-.191-.052.4.4 0 0 1-.159-.133.419.419 0 0 1-.063-.241.39.39 0 0 1 .062-.227.397.397 0 0 1 .159-.133.613.613 0 0 1 .193-.052c.061-.007.122-.01.184-.01h1.116a.63.63 0 0 1 .21.038.466.466 0 0 1 .261.257.465.465 0 0 1 .033.172.638.638 0 0 1-.006.095.319.319 0 0 1-.04.108l-.403.671a.962.962 0 0 1 .37.315c.067.094.117.198.15.308.038.13.056.264.055.4.001.15-.017.3-.054.444a1.29 1.29 0 0 1-.148.347 1.015 1.015 0 0 1-.218.253 1.25 1.25 0 0 1-.266.163c-.093.04-.19.07-.29.088a1.657 1.657 0 0 1-.291.027v-.002Zm-.759-1.07a.187.187 0 0 0-.154.067.24.24 0 0 0-.037.067.455.455 0 0 0 .027.295.58.58 0 0 0 .117.165.74.74 0 0 0 .171.134c.067.039.136.07.209.096a1.267 1.267 0 0 0 .687.055 1.018 1.018 0 0 0 .48-.217.841.841 0 0 0 .182-.209c.057-.094.1-.196.128-.303a1.541 1.541 0 0 0 .001-.756.894.894 0 0 0-.126-.26.774.774 0 0 0-.177-.18 1.067 1.067 0 0 0-.208-.118l-.089-.037.5-.833a.139.139 0 0 0 .019-.049.512.512 0 0 0 .004-.067.285.285 0 0 0-.189-.273.383.383 0 0 0-.14-.027h-1.12c-.056 0-.111.003-.168.01a.468.468 0 0 0-.14.037.21.21 0 0 0-.124.21.255.255 0 0 0 .036.15.23.23 0 0 0 .089.074.41.41 0 0 0 .138.037c.056.007.113.01.169.01h.733v.14l-.325.594a.675.675 0 0 0-.061.133.272.272 0 0 0-.004.167.199.199 0 0 0 .04.066.187.187 0 0 0 .059.034.247.247 0 0 0 .072.012.523.523 0 0 1 .377.176.63.63 0 0 1 .16.428 1 1 0 0 1-.023.21.517.517 0 0 1-.091.2.479.479 0 0 1-.18.147.651.651 0 0 1-.278.054.66.66 0 0 1-.328-.082.437.437 0 0 1-.16-.16.367.367 0 0 0-.124-.151.256.256 0 0 0-.152-.044v-.002ZM2.4 7.748a.533.533 0 0 1-.223-.05.447.447 0 0 1-.241-.304.808.808 0 0 1-.018-.176v-.4a1.145 1.145 0 0 1 .266-.724c.085-.102.184-.192.294-.267.118-.08.244-.145.376-.196.105-.04.206-.087.304-.143a.764.764 0 0 0 .162-.126.271.271 0 0 0 .067-.106.423.423 0 0 0 .013-.112.339.339 0 0 0-.035-.168.21.21 0 0 0-.075-.076.267.267 0 0 0-.103-.034 1.273 1.273 0 0 0-.123-.008.382.382 0 0 0-.151.03.191.191 0 0 0-.113.148.6.6 0 0 0-.01.114.428.428 0 0 1-.316.42.56.56 0 0 1-.167.024A.474.474 0 0 1 2 5.478a.387.387 0 0 1-.135-.306 1.206 1.206 0 0 1 .207-.66.926.926 0 0 1 .22-.228c.1-.073.214-.128.333-.164.147-.044.3-.064.454-.06.178-.005.355.022.523.08.143.05.275.128.386.232a.97.97 0 0 1 .236.356 1.21 1.21 0 0 1 .033.748 1.096 1.096 0 0 1-.28.456 1.57 1.57 0 0 1-.18.158c-.152.111-.318.2-.495.262a1.316 1.316 0 0 0-.16.078.7.7 0 0 0-.142.103.49.49 0 0 0-.093.125.333.333 0 0 0-.033.152v.073h.785c.073 0 .146.003.218.01a.753.753 0 0 1 .213.05.41.41 0 0 1 .173.134.4.4 0 0 1 .067.241.383.383 0 0 1-.067.232.425.425 0 0 1-.174.138.7.7 0 0 1-.215.054c-.072.007-.145.01-.218.01H2.4v-.004Zm.666-3.058a.8.8 0 0 1 .148.01.424.424 0 0 1 .164.056.385.385 0 0 1 .138.142.6.6 0 0 1 .03.411.445.445 0 0 1-.104.175.927.927 0 0 1-.2.154 2.29 2.29 0 0 1-.327.154c-.12.046-.235.106-.341.178a1.313 1.313 0 0 0-.261.234.99.99 0 0 0-.165.283.925.925 0 0 0-.062.333v.4c0 .047.004.094.014.14a.283.283 0 0 0 .15.19c.053.025.11.036.168.032h1.241c.067 0 .133-.003.2-.009a.533.533 0 0 0 .167-.04.251.251 0 0 0 .104-.081.223.223 0 0 0 .036-.134.23.23 0 0 0-.038-.143.227.227 0 0 0-.1-.073.563.563 0 0 0-.166-.04 2.008 2.008 0 0 0-.2-.01H2.71v-.238a.5.5 0 0 1 .05-.227.618.618 0 0 1 .127-.172.873.873 0 0 1 .172-.125c.059-.034.12-.064.183-.09.162-.058.315-.139.454-.24a1.37 1.37 0 0 0 .163-.142.967.967 0 0 0 .24-.392.777.777 0 0 0 .035-.25 1.06 1.06 0 0 0-.067-.389.8.8 0 0 0-.194-.294.912.912 0 0 0-.326-.195 1.389 1.389 0 0 0-.466-.07h-.005a1.2 1.2 0 0 0-.405.052.978.978 0 0 0-.28.14.76.76 0 0 0-.18.186 1.02 1.02 0 0 0-.178.568.23.23 0 0 0 .077.177c.06.051.137.077.215.073a.353.353 0 0 0 .198-.066.261.261 0 0 0 .101-.21.77.77 0 0 1 .013-.142.358.358 0 0 1 .211-.273.547.547 0 0 1 .215-.043h.004Zm5.013.21a.526.526 0 0 1-.245-.062.412.412 0 0 1-.155-.172.627.627 0 0 1-.056-.217 2.204 2.204 0 0 1-.01-.223V2.574a.683.683 0 0 1-.33.08.416.416 0 0 1-.304-.13.44.44 0 0 1-.09-.455.34.34 0 0 1 .08-.117.545.545 0 0 1 .11-.08l.113-.062c.073-.048.143-.101.21-.158a3.8 3.8 0 0 0 .173-.156l.133-.126a.497.497 0 0 1 .234-.128h.134a.41.41 0 0 1 .397.235.66.66 0 0 1 .055.218c.008.073.011.146.011.219v2.312c0 .076 0 .151-.01.224a.634.634 0 0 1-.056.216.407.407 0 0 1-.145.168.527.527 0 0 1-.253.065h.004Zm-.295-2.68v2.006c0 .071.004.14.01.208a.472.472 0 0 0 .042.163c.019.04.048.074.085.099a.38.38 0 0 0 .328-.005.245.245 0 0 0 .078-.095.466.466 0 0 0 .04-.16c.007-.07.01-.139.01-.21v-2.32a2.02 2.02 0 0 0-.01-.204.466.466 0 0 0-.04-.162.239.239 0 0 0-.086-.099.29.29 0 0 0-.155-.039H8.01a.419.419 0 0 1-.05.005c.005 0 0 0-.011.007l-.042.018a.382.382 0 0 0-.079.058l-.133.127c-.053.05-.112.104-.18.161a2.034 2.034 0 0 1-.232.174l-.118.067a.382.382 0 0 0-.077.055.168.168 0 0 0-.04.06.205.205 0 0 0-.017.086.277.277 0 0 0 .074.19.24.24 0 0 0 .081.056.239.239 0 0 0 .105.022.438.438 0 0 0 .2-.035.573.573 0 0 0 .155-.103l.137-.13Z"/>
</svg>