<svg xmlns="http://www.w3.org/2000/svg" width="100%" height="100%" fill="white" stroke="black" stroke-width=".25" class="s-icon s-icon-icon-boxscore" viewBox="0 0 16 16">
  <path d="M8 15.166a.667.667 0 0 1-.667-.666V2.833a.667.667 0 0 1 1.333 0V14.5a.667.667 0 0 1-.666.666Zm4.666-3h-2.333a.667.667 0 0 1-.667-.666V9.2a.667.667 0 0 1 .667-.667H12V7.5h-1.667a.667.667 0 1 1 0-1.334h2.333a.666.666 0 0 1 .667.667V9.2a.666.666 0 0 1-.667.666H11v.967h1.666a.666.666 0 1 1 0 1.333Zm-7 0H3.333a.667.667 0 0 1-.667-.666V6.833a.667.667 0 0 1 .667-.667h2.333a.667.667 0 0 1 .667.667V11.5a.667.667 0 0 1-.667.666ZM4 10.833h1V7.5H4v3.333Zm4 4.333H1a.667.667 0 0 1-.667-.666V2.833A.667.667 0 0 1 1 2.166h7a.667.667 0 0 1 .666.667V14.5a.667.667 0 0 1-.666.666Zm-6.334-1.333h5.667V3.5H1.666v10.333ZM15 15.166H8a.667.667 0 0 1-.667-.666V2.833A.667.667 0 0 1 8 2.166h2.833V1.5a.666.666 0 1 1 1.333 0v.666H15a.667.667 0 0 1 .666.667V14.5a.667.667 0 0 1-.666.666Zm-6.334-1.333h5.667V3.5h-2.167v.666a.667.667 0 1 1-1.333 0V3.5H8.666v10.333Zm-4.166-9a.667.667 0 0 1-.666-.667V1.5a.667.667 0 1 1 1.333 0v2.666a.667.667 0 0 1-.667.667Z"/>
</svg>