<svg xmlns="http://www.w3.org/2000/svg" width="100%" height="100%" fill="white" stroke="black" stroke-width=".25" class="s-icon s-icon-icon-sidearm" viewBox="0 0 16 16">
  <path d="M8.067 16a.605.605 0 0 1-.467-.2l-2.466-2.533c-.134-.134-.2-.4-.2-.6 0-.2.2-.4.4-.467l5.133-2.4a.709.709 0 0 1 .8.133l1 1.134a.8.8 0 0 1 0 .933L8.6 15.8c-.2.133-.4.2-.533.2Zm-1.4-3L8 14.4l2.734-2.867-.267-.266L6.667 13ZM4.4 11.733a.605.605 0 0 1-.466-.2L.8 8.467C.667 8.333.534 8.2.6 8c.067-.2.067-.333.2-.467l1.934-1.866a.644.644 0 0 1 .933 0l1.467 1.4 6.2-2.8c.266-.134.533-.067.733.133L15.2 7.467c.134.133.2.266.2.466s-.066.334-.2.467l-1.933 1.867a.645.645 0 0 1-.933 0l-1.467-1.4-6.2 2.8c-.133.066-.2.066-.267.066ZM2.2 8l2.334 2.267L10.6 7.6a.605.605 0 0 1 .467-.2c.2 0 .333.067.467.2l1.333 1.267 1-.934-2.333-2.266-6.2 2.733c-.067.067-.2.067-.267.067h-.133a.605.605 0 0 1-.467-.2L3.2 7.067 2.2 8Zm3.134-1.733a.605.605 0 0 1-.467-.2L3.734 4.933a.8.8 0 0 1 0-.933L7.4.2a.72.72 0 0 1 .467-.2c.2 0 .333.067.467.2l2.533 2.533c.133.134.2.4.2.6-.067.2-.2.4-.4.467L5.6 6.2c-.133.067-.2.067-.266.067Zm-.2-1.8.333.333L9.334 3l-1.4-1.4-2.8 2.867Z"/>
</svg>