<svg xmlns="http://www.w3.org/2000/svg" width="100%" height="100%" fill="white" stroke="black" stroke-width=".25" class="s-icon s-icon-icon-print" viewBox="0 0 16 16">
  <path d="M13.334 5.334h-.667v-4A.666.666 0 0 0 12 .667H4a.667.667 0 0 0-.666.667v4h-.667a2 2 0 0 0-2 2v3.333a2 2 0 0 0 2 2h.667v2a.667.667 0 0 0 .666.667h8a.667.667 0 0 0 .667-.667v-2h.667a2 2 0 0 0 2-2V7.334a2 2 0 0 0-2-2ZM4.667 2h6.667v3.334H4.667V2Zm6.667 12H4.667v-4h6.667v4ZM14 10.667a.667.667 0 0 1-.666.667h-.667v-2A.666.666 0 0 0 12 8.667H4a.667.667 0 0 0-.666.667v2h-.667A.667.667 0 0 1 2 10.667V7.334a.667.667 0 0 1 .667-.667h10.667a.667.667 0 0 1 .666.667v3.333Z"/>
</svg>